<?xml version="1.0" encoding="UTF-8" standalone="no"?>
<svg
   version="1.0"
   width="250pt"
   height="250pt"
   viewBox="0 0 250 250"
   preserveAspectRatio="xMidYMid meet"
   id="svg4641"
   sodipodi:docname="wut.svg"
   inkscape:version="1.1.1 (3bf5ae0d25, 2021-09-20)"
   xmlns:inkscape="http://www.inkscape.org/namespaces/inkscape"
   xmlns:sodipodi="http://sodipodi.sourceforge.net/DTD/sodipodi-0.dtd"
   xmlns="http://www.w3.org/2000/svg"
   xmlns:svg="http://www.w3.org/2000/svg">
  <defs
     id="defs4645" />
  <sodipodi:namedview
     id="namedview4643"
     pagecolor="#ffffff"
     bordercolor="#666666"
     borderopacity="1.0"
     inkscape:pageshadow="2"
     inkscape:pageopacity="0.0"
     inkscape:pagecheckerboard="true"
     inkscape:document-units="pt"
     showgrid="false"
     inkscape:zoom="1.9007812"
     inkscape:cx="167.03658"
     inkscape:cy="262.26058"
     inkscape:window-width="1916"
     inkscape:window-height="1029"
     inkscape:window-x="0"
     inkscape:window-y="24"
     inkscape:window-maximized="1"
     inkscape:current-layer="svg4641" />
  <metadata
     id="metadata4633">
Created by potrace 1.15, written by Peter Selinger 2001-2017
</metadata>
  <g
     transform="matrix(0.01310977,0,0,-0.01310977,80.228394,209.08047)"
     fill="#000000"
     stroke="none"
     id="g4639"
     style="fill:#3771c8">
    <path
       d="m 2964,10070 c -391,-27 -771,-114 -1103,-250 -240,-99 -380,-181 -430,-253 -62,-90 -62,-95 -59,-834 l 3,-668 26,-56 c 37,-79 76,-104 159,-104 79,1 98,10 245,120 292,218 578,350 905,420 169,36 363,44 480,21 274,-55 423,-234 421,-504 -1,-299 -140,-504 -641,-943 -301,-264 -465,-459 -580,-689 -169,-339 -215,-776 -125,-1183 39,-176 90,-264 179,-306 47,-23 156,-35 396,-45 74,-3 183,-9 242,-12 109,-7 455,9 582,27 195,27 254,128 193,330 -41,135 -48,178 -48,289 1,292 113,465 546,838 438,377 598,539 758,772 182,266 291,543 332,850 19,141 19,467 0,613 -97,744 -583,1267 -1366,1471 -144,38 -314,68 -472,86 -137,14 -497,20 -643,10 z"
       id="path4635"
       style="fill:#3771c8" />
    <path
       d="m 3050,4671 c -173,-29 -416,-133 -548,-235 -268,-206 -402,-515 -363,-836 53,-429 388,-760 847,-836 110,-18 337,-15 434,6 518,110 841,532 789,1031 -42,410 -326,712 -798,845 -93,27 -276,39 -361,25 z"
       id="path4637"
       style="fill:#3771c8" />
  </g>
</svg>
